<svg xmlns="http://www.w3.org/2000/svg" xmlns:xlink="http://www.w3.org/1999/xlink" width="1400" height="247" viewBox="0 0 1400 247">
  <defs>
    <path id="addingwell_logo_large-a" d="M418.352,215 L369.988,215 C368.275991,215 367.42,214.144009 367.42,212.432 L367.42,201.518 C367.42,199.805991 368.275991,198.95 369.988,198.95 L384.968,198.95 L371.058,161.928 L311.352,161.928 L297.442,198.95 L312.422,198.95 C314.134009,198.95 314.99,199.805991 314.99,201.518 L314.99,212.432 C314.99,214.144009 314.134009,215 312.422,215 L264.272,215 C262.559991,215 261.704,214.144009 261.704,212.432 L261.704,201.518 C261.704,199.805991 262.559991,198.95 264.272,198.95 L278.61,198.95 L324.62,77.398 L313.064,77.398 C311.209324,77.398 310.282,76.5420086 310.282,74.83 L310.282,63.916 C310.282,62.2039914 311.209324,61.348 313.064,61.348 L342.168,61.348 C345.592017,61.348 348.195658,62.0613262 349.979,63.488 C351.762342,64.9146738 353.295994,67.2686503 354.58,70.55 L403.8,198.95 L418.352,198.95 C420.064009,198.95 420.92,199.805991 420.92,201.518 L420.92,212.432 C420.92,214.144009 420.064009,215 418.352,215 Z M365.28,147.162 L341.526,83.604 L340.884,83.604 L316.916,147.162 L365.28,147.162 Z M535.838,215 L517.22,215 C513.93865,215 511.549007,214.32234 510.051,212.967 C508.552993,211.61166 507.804,209.29335 507.804,206.012 L507.804,194.028 L507.59,194.028 C505.307322,200.02003 501.027365,205.262978 494.75,209.757 C488.472635,214.251022 480.840045,216.498 471.852,216.498 C457.585262,216.498 445.993711,211.504717 437.077,201.518 C428.160289,191.531283 423.702,178.441748 423.702,162.249 C423.702,146.056252 428.160289,133.002383 437.077,123.087 C445.993711,113.171617 457.656595,108.214 472.066,108.214 C480.911378,108.214 488.258637,110.24698 494.108,114.313 C499.957363,118.37902 504.165987,123.336637 506.734,129.186 L506.948,129.186 C506.805333,126.332652 506.734,123.978676 506.734,122.124 L506.734,75.686 L494.75,75.686 C492.895324,75.686 491.968,74.8300086 491.968,73.118 L491.968,63.916 C491.968,62.2039914 492.895324,61.348 494.75,61.348 L521.286,61.348 C522.998009,61.348 523.854,62.2039914 523.854,63.916 L523.854,200.662 L535.838,200.662 C537.550009,200.662 538.406,201.517991 538.406,203.23 L538.406,212.432 C538.406,214.144009 537.550009,215 535.838,215 Z M441.25,161.928 C441.25,173.769393 444.352969,183.327964 450.559,190.604 C456.765031,197.880036 464.647286,201.518 474.206,201.518 C483.764714,201.518 491.611303,197.915703 497.746,190.711 C503.880697,183.506297 506.948,173.91206 506.948,161.928 C506.948,149.94394 503.809365,140.492368 497.532,133.573 C491.254635,126.653632 483.47938,123.194 474.206,123.194 C464.93262,123.194 457.121698,126.689298 450.773,133.68 C444.424302,140.670702 441.25,150.086607 441.25,161.928 Z M663.168,215 L644.55,215 C641.26865,215 638.879007,214.32234 637.381,212.967 C635.882993,211.61166 635.134,209.29335 635.134,206.012 L635.134,194.028 L634.92,194.028 C632.637322,200.02003 628.357365,205.262978 622.08,209.757 C615.802635,214.251022 608.170045,216.498 599.182,216.498 C584.915262,216.498 573.323711,211.504717 564.407,201.518 C555.490289,191.531283 551.032,178.441748 551.032,162.249 C551.032,146.056252 555.490289,133.002383 564.407,123.087 C573.323711,113.171617 584.986595,108.214 599.396,108.214 C608.241378,108.214 615.588637,110.24698 621.438,114.313 C627.287363,118.37902 631.495987,123.336637 634.064,129.186 L634.278,129.186 C634.135333,126.332652 634.064,123.978676 634.064,122.124 L634.064,75.686 L622.08,75.686 C620.225324,75.686 619.298,74.8300086 619.298,73.118 L619.298,63.916 C619.298,62.2039914 620.225324,61.348 622.08,61.348 L648.616,61.348 C650.328009,61.348 651.184,62.2039914 651.184,63.916 L651.184,200.662 L663.168,200.662 C664.880009,200.662 665.736,201.517991 665.736,203.23 L665.736,212.432 C665.736,214.144009 664.880009,215 663.168,215 Z M568.58,161.928 C568.58,173.769393 571.682969,183.327964 577.889,190.604 C584.095031,197.880036 591.977286,201.518 601.536,201.518 C611.094714,201.518 618.941303,197.915703 625.076,190.711 C631.210697,183.506297 634.278,173.91206 634.278,161.928 C634.278,149.94394 631.139365,140.492368 624.862,133.573 C618.584635,126.653632 610.80938,123.194 601.536,123.194 C592.26262,123.194 584.451698,126.689298 578.103,133.68 C571.754302,140.670702 568.58,150.086607 568.58,161.928 Z M725.656,215 L684.782,215 C682.927324,215 682,214.144009 682,212.432 L682,203.23 C682,201.517991 682.927324,200.662 684.782,200.662 L696.552,200.662 L696.552,124.05 L684.782,124.05 C682.927324,124.05 682,123.194009 682,121.482 L682,112.28 C682,110.567991 682.927324,109.712 684.782,109.712 L711.746,109.712 C713.458009,109.712 714.314,110.567991 714.314,112.28 L714.314,200.662 L725.656,200.662 C727.510676,200.662 728.438,201.517991 728.438,203.23 L728.438,212.432 C728.438,214.144009 727.510676,215 725.656,215 Z M713.458,78.04 C715.883345,80.4653455 717.096,83.3186503 717.096,86.6 C717.096,89.8813497 715.919012,92.6633219 713.565,94.946 C711.210988,97.2286781 708.39335,98.37 705.112,98.37 C701.83065,98.37 699.013012,97.2286781 696.659,94.946 C694.304988,92.6633219 693.128,89.8813497 693.128,86.6 C693.128,83.3186503 694.304988,80.4653455 696.659,78.04 C699.013012,75.6146545 701.83065,74.402 705.112,74.402 C708.39335,74.402 711.175322,75.6146545 713.458,78.04 Z M858.55,215 L838.22,215 C832.085303,215 829.018,212.00403 829.018,206.012 L829.018,149.73 C829.018,141.455292 827.020687,135.035356 823.026,130.47 C819.031313,125.904644 813.182039,123.622 805.478,123.622 C794.492612,123.622 785.932697,128.115955 779.798,137.104 C779.084663,137.960004 778.157339,139.529322 777.016,141.812 L777.016,200.662 L788.358,200.662 C790.212676,200.662 791.14,201.517991 791.14,203.23 L791.14,212.432 C791.14,214.144009 790.212676,215 788.358,215 L747.484,215 C745.629324,215 744.702,214.144009 744.702,212.432 L744.702,203.23 C744.702,201.517991 745.629324,200.662 747.484,200.662 L759.254,200.662 L759.254,124.05 L747.484,124.05 C745.629324,124.05 744.702,123.194009 744.702,121.482 L744.702,112.28 C744.702,110.567991 745.629324,109.712 747.484,109.712 L772.522,109.712 C774.376676,109.712 775.304,110.567991 775.304,112.28 L774.876,126.832 L775.518,126.832 C782.936704,114.419938 794.421256,108.214 809.972,108.214 C821.38539,108.214 830.301968,111.566633 836.722,118.272 C843.142032,124.977367 846.423333,134.03661 846.566,145.45 L846.566,200.662 L858.55,200.662 C860.404676,200.662 861.332,201.517991 861.332,203.23 L861.332,212.432 C861.332,214.144009 860.404676,215 858.55,215 Z M922.75,265.076 C915.616631,265.076 910.231018,264.576672 906.593,263.578 C902.954982,262.579328 900.030344,261.687671 897.819,260.903 C895.607656,260.118329 893.717341,259.333671 892.148,258.549 C890.578659,257.764329 889.080674,256.944004 887.654,256.088 C881.376635,251.950646 879.022659,248.954676 880.592,247.1 L886.156,239.182 C887.012004,237.897994 888.224659,237.826661 889.794,238.968 C889.936667,238.968 890.400329,239.288997 891.185,239.931 C891.969671,240.573003 892.754329,241.17933 893.539,241.75 C894.323671,242.32067 895.39366,242.998329 896.749,243.783 C898.10434,244.567671 899.637991,245.280997 901.35,245.923 C903.062009,246.565003 904.916657,247.17133 906.914,247.742 C911.622024,249.026006 916.829305,249.668 922.536,249.668 C932.808051,249.668 941.046969,247.207025 947.253,242.285 C953.459031,237.362975 956.562,229.623386 956.562,219.066 L956.562,194.67 C953.993987,200.66203 949.749696,205.797979 943.829,210.078 C937.908304,214.358021 930.525378,216.498 921.68,216.498 C907.127927,216.498 895.465044,211.433384 886.691,201.304 C877.916956,191.174616 873.53,178.049414 873.53,161.928 C873.53,145.806586 877.988289,132.824049 886.905,122.98 C895.821711,113.135951 907.413262,108.214 921.68,108.214 C930.525378,108.214 937.979636,110.24698 944.043,114.313 C950.106364,118.37902 954.49332,123.336637 957.204,129.186 L957.632,129.186 L957.418,112.28 C957.418,110.567991 958.273991,109.712 959.986,109.712 L985.238,109.712 C986.950009,109.712 987.806,110.567991 987.806,112.28 L987.806,121.482 C987.806,123.194009 986.950009,124.05 985.238,124.05 L973.682,124.05 L973.682,219.066 C973.682,234.33141 969.009713,245.815961 959.665,253.52 C950.320287,261.224039 938.01541,265.076 922.75,265.076 Z M891.078,162.356 C891.078,174.054725 894.216635,183.506297 900.494,190.711 C906.771365,197.915703 914.617953,201.518 924.034,201.518 C933.450047,201.518 941.260969,197.951369 947.467,190.818 C953.673031,183.684631 956.776,174.12606 956.776,162.142 C956.776,150.15794 953.673031,140.670702 947.467,133.68 C941.260969,126.689298 933.450047,123.194 924.034,123.194 C914.617953,123.194 906.771365,126.760631 900.494,133.894 C894.216635,141.027369 891.078,150.514607 891.078,162.356 Z M1119.202,215 L1106.576,215 C1103.57999,215 1101.868,213.502015 1101.44,210.506 L1083.25,138.816 L1082.822,138.816 L1064.632,210.506 C1064.06133,213.502015 1062.27801,215 1059.282,215 L1046.87,215 C1044.30199,215 1042.59,213.502015 1041.734,210.506 L1013.486,124.05 L1001.502,124.05 C999.789991,124.05 998.934,123.194009 998.934,121.482 L998.934,112.28 C998.934,110.567991 999.789991,109.712 1001.502,109.712 L1041.52,109.712 C1043.23201,109.712 1044.088,110.567991 1044.088,112.28 L1044.088,121.482 C1044.088,123.194009 1043.23201,124.05 1041.52,124.05 L1031.676,124.05 L1053.29,196.168 L1053.718,196.168 L1072.55,124.05 L1064.204,124.05 C1062.49199,124.05 1061.636,123.194009 1061.636,121.482 L1061.636,112.28 C1061.636,110.567991 1062.49199,109.712 1064.204,109.712 L1101.868,109.712 C1103.58001,109.712 1104.436,110.567991 1104.436,112.28 L1104.436,121.482 C1104.436,123.194009 1103.58001,124.05 1101.868,124.05 L1093.522,124.05 L1112.354,196.168 L1112.782,196.168 L1134.182,124.05 L1124.552,124.05 C1122.69732,124.05 1121.77,123.194009 1121.77,121.482 L1121.77,112.28 C1121.77,110.567991 1122.69732,109.712 1124.552,109.712 L1164.356,109.712 C1166.06801,109.712 1166.924,110.567991 1166.924,112.28 L1166.924,121.482 C1166.924,123.194009 1166.06801,124.05 1164.356,124.05 L1152.586,124.05 L1124.338,210.506 C1123.19666,213.502015 1121.48468,215 1119.202,215 Z M1268.36,164.496 L1191.32,164.496 C1191.89067,176.337393 1195.63563,185.467968 1202.555,191.888 C1209.47437,198.308032 1217.28529,201.518 1225.988,201.518 C1234.69071,201.518 1242.14497,199.663352 1248.351,195.954 C1254.55703,192.244648 1258.72999,188.606685 1260.87,185.04 C1262.01134,183.613326 1263.29533,183.399328 1264.722,184.398 L1270.5,190.176 C1271.356,191.032004 1271.784,191.780997 1271.784,192.423 C1271.784,193.065003 1271.463,193.885328 1270.821,194.884 C1270.179,195.882672 1268.85934,197.451989 1266.862,199.592 C1264.86466,201.732011 1262.04702,204.15732 1258.409,206.868 C1254.77098,209.57868 1250.06303,211.861324 1244.285,213.716 C1238.50697,215.570676 1232.3367,216.498 1225.774,216.498 C1210.79393,216.498 1198.27505,211.576049 1188.217,201.732 C1178.15895,191.887951 1173.13,178.65575 1173.13,162.035 C1173.13,145.41425 1178.12328,132.289048 1188.11,122.659 C1198.09672,113.028952 1210.33026,108.214 1224.811,108.214 C1239.29174,108.214 1250.66929,112.886287 1258.944,122.231 C1267.21871,131.575713 1271.356,144.165921 1271.356,160.002 L1271.356,161.714 C1271.356,163.568676 1270.35734,164.496 1268.36,164.496 Z M1253.594,151.442 C1253.166,142.596622 1250.38403,135.534693 1245.248,130.256 C1240.11197,124.977307 1233.26404,122.338 1224.704,122.338 C1216.14396,122.338 1208.7967,124.763309 1202.662,129.614 C1196.5273,134.464691 1192.88934,141.740618 1191.748,151.442 L1253.594,151.442 Z M1330.634,215 L1289.76,215 C1287.90532,215 1286.978,214.144009 1286.978,212.432 L1286.978,203.23 C1286.978,201.517991 1287.90532,200.662 1289.76,200.662 L1301.53,200.662 L1301.53,75.686 L1289.76,75.686 C1287.90532,75.686 1286.978,74.8300086 1286.978,73.118 L1286.978,63.916 C1286.978,62.2039914 1287.90532,61.348 1289.76,61.348 L1313.514,61.348 C1317.36602,61.348 1319.292,63.1313155 1319.292,66.698 L1319.292,200.662 L1330.634,200.662 C1332.48868,200.662 1333.416,201.517991 1333.416,203.23 L1333.416,212.432 C1333.416,214.144009 1332.48868,215 1330.634,215 Z M1393.336,215 L1352.462,215 C1350.60732,215 1349.68,214.144009 1349.68,212.432 L1349.68,203.23 C1349.68,201.517991 1350.60732,200.662 1352.462,200.662 L1364.232,200.662 L1364.232,75.686 L1352.462,75.686 C1350.60732,75.686 1349.68,74.8300086 1349.68,73.118 L1349.68,63.916 C1349.68,62.2039914 1350.60732,61.348 1352.462,61.348 L1376.216,61.348 C1380.06802,61.348 1381.994,63.1313155 1381.994,66.698 L1381.994,200.662 L1393.336,200.662 C1395.19068,200.662 1396.118,201.517991 1396.118,203.23 L1396.118,212.432 C1396.118,214.144009 1395.19068,215 1393.336,215 Z"/>
  </defs>
  <g fill="none" fill-rule="evenodd" transform="translate(3 -20)">
    <g fill-rule="nonzero">
      <use fill="#000" xlink:href="#addingwell_logo_large-a"/>
      <use fill="#0891B2" xlink:href="#addingwell_logo_large-a"/>
    </g>
    <g transform="translate(0 7)">
      <circle cx="149" cy="161.446" r="33" stroke="#0891B2" stroke-width="12"/>
      <circle cx="57" cy="161.446" r="33" stroke="#0891B2" stroke-width="12"/>
      <path fill="#0891B2" fill-rule="nonzero" d="M95,167.42451 C96.1269604,166.183165 98.6133432,165.562493 102.459149,165.562493 C106.304954,165.562493 109.151904,166.183165 111,167.42451 L118.008957,155.939506 C113.059665,153.312527 108.215748,151.918915 103.477206,151.758669 C98.7386645,151.598423 93.8947476,152.664416 88.9454556,154.956648 L95,167.42451 Z"/>
      <g transform="translate(0 .446)">
        <path fill="#0891B2" fill-rule="nonzero" d="M38.7814945,104.767481 L38.1491502,49.569359 C45.8354774,32.220828 74.8455874,14.4647835 111.671907,14.4647835 C148.498226,14.4647835 170.884343,27.4529181 185.356022,49.569359 L185.356022,104.767481 L110.795087,112.951175 L38.7814945,104.767481 Z" transform="rotate(12 111.753 63.708)"/>
        <path stroke="#0891B2" stroke-linecap="round" stroke-width="11" d="M-7.79944019e-05,96.8708455 C23.8722385,104.750288 58.1841839,108.69001 102.935758,108.69001 C147.687332,108.69001 181.999278,104.750288 205.871594,96.8708455" transform="rotate(10 102.936 102.78)"/>
      </g>
      <path fill="#0891B2" stroke="#0891B2" d="M4.00552039,2.87418252 C2.9531194,3.99012034 1.92458817,5.72985604 1.49237488,7.12341126 C1.37132106,7.51291688 1.06740777,8.25449184 0.816775213,8.77060783 C-0.00161681349,10.4573438 -0.0327327603,10.7189772 0.0133017912,15.5045123 C0.0516639174,19.5312265 0.0286466416,19.3600291 0.790774216,21.276851 C1.0742277,21.9906643 1.39817455,22.964849 1.5362782,23.5192425 C1.67651309,24.0824693 1.93993302,24.872417 2.15603966,25.3771759 C2.36234265,25.8596413 2.61894265,26.4981613 2.72550412,26.7963897 C2.83206558,27.0941974 3.14322505,27.6935987 3.41687488,28.1281119 C3.69095096,28.5630459 3.96417455,29.0131226 4.02470146,29.1287965 C4.08480212,29.2444704 4.38274797,29.7336659 4.68666126,30.21529 C4.9901483,30.6973348 5.3443586,31.3282834 5.47351109,31.6176785 C5.84988617,32.459364 5.94920146,32.6027997 7.42997953,34.4451697 C10.4090118,38.151362 11.2376337,39.0696025 12.538536,40.1051996 C13.0108164,40.481245 13.5862483,40.9527739 13.8172735,41.1534156 C14.5214317,41.7650151 16.1279523,42.9263812 16.6172825,43.1779194 C16.8708988,43.3083155 17.4463307,43.641877 17.8960201,43.9190737 C18.899829,44.5382447 21.0604692,45.6470317 21.5898666,45.8148641 C22.0634257,45.9646092 22.7091882,46.2813454 23.4789882,46.740676 C24.1690802,47.1524752 26.8761676,48.0930093 27.8769928,48.268413 C28.7533543,48.4223645 29.0815636,48.5342527 30.1505882,49.0461624 C31.2430563,49.5694291 31.8120945,49.7221187 33.3828104,49.9135064 C34.9931672,50.1099418 35.6044038,50.2294014 36.6094915,50.5440344 C38.0676785,51.0012619 38.0263327,50.9978968 41.9789104,50.9924286 C45.9732602,50.9869604 45.738825,51.0092539 47.6556526,50.4498128 C48.2353469,50.2802979 48.9898021,50.131394 49.8580649,50.0140376 C52.233533,49.6935157 52.4756406,49.632524 53.6162745,49.0709797 C54.7615971,48.5077529 54.7667121,48.5056497 55.9384619,48.2595797 C57.1946084,47.9954226 58.7981453,47.3396566 59.7746745,46.6902002 C60.0478981,46.5080663 60.6663808,46.1492669 61.1488911,45.8922604 C61.6314014,45.6356747 62.1590938,45.3361844 62.3210672,45.22682 C62.4834669,45.1174555 62.9199426,44.8427825 63.2912028,44.6173236 C64.3176028,43.9922638 65.9514031,42.6609622 66.7838612,41.7704833 C67.6372054,40.857711 67.9487911,40.5649508 68.7258373,39.9453592 C69.7948619,39.0927373 72.010914,35.9745892 72.5948709,34.5015344 C73.3139476,32.6865055 74.6937054,32.7609575 75.6685297,34.6672636 C75.8262406,34.9755872 76.1535974,35.5118935 76.3961313,35.8589153 C76.6386652,36.205937 76.9438572,36.6791485 77.0742885,36.9104963 C77.7503144,38.11014 78.3334187,38.8088104 80.0652556,40.4942846 C82.9888758,43.3398629 84.7514024,44.6921961 86.9533885,45.7803722 C87.2824502,45.9427363 87.8932605,46.2952263 88.3114077,46.5635898 C89.6037851,47.3926563 91.1664024,48.0151923 92.8598772,48.3752536 C93.3798971,48.48588 93.7537147,48.6255299 94.3704924,48.9389011 C95.4216147,49.4735249 96.0524585,49.6796348 97.0494476,49.8138165 C98.8737798,50.0598865 99.7399114,50.2222506 100.757786,50.5074394 C102.519887,51.0016825 102.502837,50.9999942 106.342033,50.9999942 C110.193165,50.9999942 110.224707,50.9974762 111.918608,50.5103838 C113.107834,50.1688303 113.748907,50.0430612 115.144863,49.8764908 C116.477733,49.7179123 117.013951,49.5652228 118.201045,49.0062023 C119.212953,48.5296257 119.545851,48.424047 120.750848,48.1973261 C121.0765,48.1359138 121.651932,47.9752322 122.029585,47.8402092 C122.407666,47.7051862 123.063232,47.4809891 123.486494,47.3421804 C123.987333,47.1781338 124.471974,46.9560398 124.871793,46.7078667 C125.683365,46.2039491 126.000918,46.0487357 126.764324,45.7833166 C127.466777,45.5389292 129.622303,44.4326659 130.524239,43.8542964 C130.84094,43.6511309 131.355418,43.3318709 131.667857,43.1451101 C131.980721,42.9579287 132.699798,42.4582173 133.266278,42.0342199 C133.832759,41.610643 134.663939,40.9893689 135.113628,40.6541249 C136.41112,39.6862497 138.093086,37.9145459 139.573012,35.9577639 C140.080671,35.2864345 140.775025,34.4384396 141.115596,34.0733306 C141.923332,33.2076691 142.254951,32.7386639 142.751527,31.7577491 C142.975733,31.3144026 143.374272,30.6203591 143.637266,30.21529 C143.899834,29.8106416 144.426247,28.8482347 144.806459,28.0772154 C145.187096,27.3061962 145.766364,26.1389412 146.093721,25.4831753 C146.722007,24.2263256 146.80683,23.9832 147.048512,22.7524296 C147.131203,22.3301146 147.33708,21.6205077 147.505873,21.175058 C148.018221,19.8231454 148.000839,20.0317791 148.000839,14.9673647 C147.997335,9.88318059 148.018647,10.13556 147.48243,8.89259123 C147.327276,8.53210924 147.115859,7.90831136 147.013133,7.50576613 C146.767616,6.54630357 146.729254,6.46259772 146.077097,5.48126228 C145.771053,5.02109041 145.318806,4.31737236 145.071583,3.91735093 C144.824361,3.51732949 144.303062,2.81108765 143.913473,2.34839199 C143.132165,1.42131813 141.826574,-0.00336388919 141.942513,0.350808611 C142.063993,0.721806409 142.026483,7.31311648 141.899462,7.92808108 C141.485151,9.93113268 139.258869,12.5276966 137.067113,13.5632937 C134.478948,14.7860721 133.967453,15.0106898 133.550584,15.106594 C131.947474,15.4763299 125.597263,15.4784331 123.807883,15.1103797 C123.547021,15.0565388 122.810894,14.791961 122.172804,14.5223356 C120.919215,13.9927594 120.853147,13.9717277 119.619165,13.715142 C119.025405,13.591476 118.558666,13.4366833 117.94956,13.1615897 C117.484952,12.9512735 116.782499,12.6934258 116.388648,12.5886883 C115.912105,12.462078 115.436841,12.2702696 114.96797,12.0149457 C114.580087,11.8042089 113.991015,11.5047186 113.65897,11.3490846 C111.712731,10.4384154 110.492389,9.80999055 109.919941,9.42300872 C109.151846,8.90436894 108.859015,8.7508381 108.170628,8.5081332 C107.887601,8.40844331 107.288299,8.16111145 106.839036,7.95836662 C106.389773,7.75604242 105.718436,7.5183851 105.347175,7.43047293 C104.975915,7.34256075 104.001091,7.04012604 103.180568,6.75788168 C100.701522,5.90610103 100.575353,5.88927573 96.5737572,5.89137889 C92.7366921,5.89306142 92.4881908,5.92629138 90.3966024,6.71161212 C89.7342164,6.96020588 88.7870981,7.25548984 88.2918004,7.36737806 C87.2530393,7.60293222 86.9921768,7.68705871 86.4112037,7.97519192 C86.1788998,8.0904452 85.591533,8.33146758 85.1064652,8.51107762 C84.6213974,8.69026703 84.0459655,8.95652736 83.8277277,9.10164554 C83.6094898,9.24718436 82.7105373,9.84364114 81.8294871,10.4274789 C79.0473805,12.2706902 77.1825549,14.161433 75.8296506,16.5098238 C74.6579008,18.5444228 73.4286077,18.5482085 72.4132901,16.5207602 C71.2747875,14.2480832 69.6409871,12.5928947 66.3814851,10.4098124 C65.6389649,9.91262486 64.7877519,9.34266792 64.4893798,9.14286752 C64.1526456,8.91782918 63.7217111,8.70709233 63.3525822,8.58805336 C63.0256516,8.48247462 62.3905453,8.22715074 61.9412822,8.02146148 C61.3922775,7.76950266 60.833043,7.57811491 60.2362988,7.43804431 C59.747821,7.32363229 58.7090599,7.00437228 57.927325,6.72927868 C55.5855303,5.9044185 55.8596064,5.94395794 52.231828,5.90736292 C47.7941825,5.86235525 47.2771463,5.92208506 45.1621144,6.72128666 C44.5636652,6.94758691 43.6587453,7.23614075 43.1510865,7.36233047 C42.5547685,7.51081372 41.9128423,7.73459017 41.3395416,7.99412037 C40.8510639,8.2149524 40.275632,8.45092719 40.0608041,8.51906964 C39.5314068,8.68606071 39.0433553,8.93171005 38.533139,9.28756508 C37.7624865,9.82513331 35.5724353,11.0159437 34.9923147,11.2132203 C34.7808968,11.2851485 34.1321506,11.5846387 33.5511775,11.8786608 C32.8755779,12.220635 32.2259792,12.490681 31.7490101,12.6278071 C31.3385353,12.7460049 30.625426,12.9992256 30.1638018,13.191034 C29.6484705,13.4051359 28.9630672,13.620079 28.3876353,13.7479513 C27.8573855,13.8657284 27.1118815,14.094973 26.6694383,14.275845 C24.5488652,15.1448716 24.4448612,15.1713714 22.7620426,15.2773708 C20.5050709,15.4191239 19.1248868,15.4405762 17.5051526,15.3585528 C14.7013074,15.2167997 14.2528968,15.1259431 13.1361327,14.4718597 C12.7648725,14.2548134 12.1463898,13.9384978 11.7619161,13.7698242 C9.57612737,12.8095204 8.46319946,11.7928518 7.08727787,9.49914318 C5.94834896,7.60124969 5.96284132,7.66686835 5.96028385,4.31148351 C5.95943136,2.53893848 5.93300411,1.74941142 5.86565727,1.46758769 C5.76250577,1.03475693 5.72968484,1.04527274 4.00552039,2.87418252 Z" transform="translate(29 208)"/>
    </g>
  </g>
</svg>
