<?xml version="1.0" encoding="UTF-8"?>
<svg id="Calque_1" data-name="Calque 1" xmlns="http://www.w3.org/2000/svg" viewBox="0 0 1922.68 328.7">
  <defs>
    <style>
      .cls-1 {
        fill: #1d1d1b;
        stroke-width: 0px;
      }
    </style>
  </defs>
  <g>
    <path class="cls-1" d="M517.25,118.03c-5.32-6.21-11.57-11.38-18.7-15.43-10.28-5.86-22.02-8.83-34.88-8.83-10.98,0-21.3,2.1-30.69,6.22-9.31,4.11-17.5,9.8-24.33,16.94-6.81,7.12-12.25,15.7-16.13,25.48-3.9,9.79-5.89,20.51-5.89,31.86s1.98,22.05,5.89,31.87c3.9,9.8,9.32,18.37,16.13,25.48,6.81,7.11,14.99,12.81,24.33,16.92,9.34,4.12,19.68,6.22,30.69,6.22,12.87,0,24.6-2.97,34.88-8.83,7.12-4.04,13.38-9.2,18.7-15.43v20.8h31.81V97.24h-31.81v20.79ZM448.72,220.04c-6.01-2.51-11.24-5.98-15.59-10.35-4.38-4.38-7.87-9.67-10.35-15.72-2.5-6.07-3.76-12.71-3.76-19.71s1.27-13.62,3.76-19.71c2.5-6.07,5.97-11.36,10.35-15.72,4.35-4.35,9.6-7.84,15.59-10.35,6.01-2.5,12.57-3.76,19.56-3.76s13.57,1.27,19.56,3.76c6.01,2.52,11.19,6,15.43,10.33,4.26,4.34,7.7,9.63,10.23,15.75,2.5,6.09,3.76,12.72,3.76,19.71s-1.27,13.64-3.76,19.71c-2.51,6.1-5.97,11.4-10.25,15.76-4.23,4.34-9.41,7.81-15.41,10.32-11.87,5-27.15,5-39.11,0Z"/>
    <path class="cls-1" d="M705.83,118.03c-5.32-6.21-11.57-11.38-18.7-15.43-10.28-5.86-22.02-8.83-34.88-8.83-10.98,0-21.3,2.1-30.69,6.22-9.31,4.11-17.5,9.8-24.33,16.94-6.81,7.12-12.25,15.7-16.13,25.48-3.9,9.79-5.89,20.51-5.89,31.86s1.98,22.05,5.89,31.87c3.9,9.8,9.32,18.37,16.13,25.48,6.81,7.11,14.99,12.81,24.33,16.92,9.34,4.12,19.68,6.22,30.69,6.22,12.87,0,24.6-2.97,34.88-8.83,7.12-4.04,13.38-9.2,18.7-15.43v20.8h31.81V36.67h-31.81v81.35ZM637.29,220.04c-6.01-2.51-11.24-5.98-15.59-10.35-4.38-4.38-7.87-9.67-10.35-15.72-2.5-6.07-3.76-12.71-3.76-19.71s1.27-13.62,3.76-19.71c2.5-6.07,5.97-11.36,10.35-15.72,4.35-4.35,9.6-7.84,15.59-10.35,6.01-2.5,12.57-3.76,19.56-3.76s13.57,1.27,19.56,3.76c6.01,2.52,11.19,6,15.43,10.33,4.26,4.34,7.7,9.63,10.23,15.75,2.5,6.09,3.76,12.72,3.76,19.71s-1.27,13.64-3.76,19.71c-2.51,6.1-5.97,11.4-10.25,15.76-4.23,4.34-9.41,7.81-15.41,10.32-11.89,5-27.15,5-39.11,0Z"/>
    <path class="cls-1" d="M894.4,118.03c-5.32-6.21-11.57-11.38-18.7-15.43-10.28-5.86-22.02-8.83-34.88-8.83-10.98,0-21.3,2.1-30.69,6.22-9.31,4.11-17.5,9.8-24.33,16.94-6.81,7.12-12.25,15.7-16.13,25.48-3.9,9.79-5.89,20.51-5.89,31.86s1.98,22.05,5.89,31.87c3.9,9.8,9.32,18.37,16.13,25.48,6.81,7.11,14.99,12.81,24.33,16.92,9.34,4.12,19.68,6.22,30.69,6.22,12.87,0,24.6-2.97,34.88-8.83,7.12-4.04,13.38-9.2,18.7-15.43v20.8h31.81V36.67h-31.81v81.35ZM825.86,220.04c-6.01-2.51-11.24-5.98-15.59-10.35-4.38-4.38-7.87-9.67-10.35-15.72-2.5-6.07-3.76-12.71-3.76-19.71s1.27-13.62,3.76-19.71c2.5-6.07,5.97-11.36,10.35-15.72,4.35-4.35,9.6-7.84,15.59-10.35,6.01-2.5,12.57-3.76,19.56-3.76s13.57,1.27,19.56,3.76c6.01,2.52,11.19,6,15.43,10.33,4.26,4.34,7.7,9.63,10.23,15.75,2.5,6.09,3.76,12.72,3.76,19.71s-1.27,13.64-3.76,19.71c-2.51,6.1-5.97,11.4-10.25,15.76-4.23,4.34-9.41,7.81-15.41,10.32-11.87,5-27.13,5-39.11,0Z"/>
    <rect class="cls-1" x="961.28" y="97.24" width="31.81" height="154.06"/>
    <path class="cls-1" d="M962.77,40.56c-3.85,3.76-5.82,8.58-5.82,14.34s1.95,10.31,5.78,14.15c3.85,3.85,8.71,5.8,14.46,5.8s10.32-1.96,14.13-5.8c3.85-3.82,5.8-8.58,5.8-14.15s-1.97-10.6-5.82-14.34c-7.78-7.55-20.94-7.31-28.54,0Z"/>
    <path class="cls-1" d="M1154.96,111.23c-5.51-5.5-12.2-9.84-19.93-12.89-7.72-3.04-16.39-4.58-25.8-4.58-12.04,0-22.99,2.51-32.59,7.46-6.47,3.34-12.15,7.66-16.95,12.9v-16.89h-31.81v154.06h31.81v-85.97c0-6.25.99-11.93,2.94-16.89,1.92-4.88,4.69-9.13,8.26-12.61,3.58-3.49,7.96-6.24,13.07-8.16,5.15-1.96,10.93-2.95,17.21-2.95,12.37,0,21.83,3.52,28.91,10.76,7,7.18,10.54,17.02,10.54,29.27v86.55h31.81v-94.34c0-9.44-1.54-18.12-4.57-25.8-3.06-7.73-7.39-14.44-12.9-19.93Z"/>
    <path class="cls-1" d="M1327.45,117.88c-5.3-6.12-11.57-11.23-18.68-15.29-10.28-5.86-22.12-8.83-35.18-8.83-10.97,0-21.28,2.04-30.66,6.06-9.34,4.02-17.52,9.62-24.35,16.64-6.81,7.02-12.25,15.46-16.15,25.06-3.9,9.62-5.89,20.15-5.89,31.31s1.98,21.68,5.89,31.31c3.9,9.61,9.34,18.03,16.15,25.04,6.83,7.04,15.02,12.63,24.35,16.64,9.34,4.02,19.64,6.06,30.66,6.06,13.04,0,24.88-2.92,35.16-8.66,7.13-3.99,13.4-9.07,18.7-15.17v11.55c0,7.23-1.13,13.95-3.37,19.97-2.22,5.95-5.37,11.03-9.31,15.06-3.97,4.04-8.9,7.26-14.66,9.58-5.83,2.33-12.34,3.5-19.32,3.5-10.44,0-19.57-2.3-27.17-6.85-7.46-4.49-12.85-10.75-16-18.62l-.87-2.21h-33.09l1.4,4.54c5.03,16.24,14.18,29.27,27.25,38.71,13.04,9.44,29.34,14.22,48.47,14.22,11.72,0,22.48-1.88,31.98-5.58,9.53-3.72,17.88-9.02,24.82-15.75,6.96-6.78,12.37-15.05,16.1-24.59,3.7-9.5,5.58-20.16,5.58-31.69V97.24h-31.82v20.64ZM1258.93,218.61c-6.01-2.51-11.24-5.98-15.59-10.35-4.36-4.34-7.84-9.63-10.35-15.73-2.5-6.05-3.76-12.68-3.76-19.7s1.27-13.59,3.76-19.56c2.5-6,5.99-11.24,10.35-15.59,4.35-4.36,9.58-7.84,15.59-10.34,5.97-2.5,12.54-3.76,19.56-3.76s13.58,1.27,19.56,3.76c5.97,2.5,11.17,5.97,15.43,10.33,4.26,4.34,7.7,9.6,10.23,15.6,2.48,5.98,3.75,12.56,3.75,19.56s-1.27,13.64-3.75,19.7c-2.53,6.12-5.97,11.42-10.23,15.77-4.26,4.35-9.46,7.82-15.43,10.32-12.01,5-27.1,5-39.11,0Z"/>
    <polygon class="cls-1" points="1603.31 97.24 1562.53 207.37 1522.29 97.24 1491.73 97.24 1451.2 208.23 1410.96 99.53 1410.12 97.24 1376.64 97.24 1435.24 251.3 1466.03 251.3 1506.57 143.83 1547.11 251.3 1577.89 251.3 1636.51 97.24 1603.31 97.24"/>
    <path class="cls-1" d="M1776.16,116.83c-7.34-7.12-16.05-12.8-25.92-16.87-19.85-8.21-44.81-8.21-64.65,0-9.87,4.08-18.58,9.76-25.9,16.87-7.34,7.13-13.14,15.71-17.23,25.52-4.11,9.79-6.19,20.52-6.19,31.92s2.09,22.13,6.19,31.92c4.11,9.82,9.91,18.41,17.23,25.53,7.29,7.09,16.01,12.76,25.89,16.85,9.89,4.11,20.77,6.19,32.35,6.19,8.96,0,17.55-1.21,25.51-3.61,8.01-2.4,15.4-5.8,21.95-10.09,6.59-4.28,12.47-9.5,17.5-15.54,5.03-6.01,9.08-12.72,12.08-19.92l2.02-4.85h-34.95l-1.01,1.75c-3.88,6.71-9.63,12.18-17.11,16.27-7.49,4.11-16.24,6.2-25.99,6.2-6.3,0-12.2-.99-17.55-2.97-5.36-1.96-10.18-4.75-14.34-8.31-4.17-3.54-7.7-7.88-10.47-12.87-2.14-3.89-3.8-8.14-4.93-12.68h127.94l.38-3.08c.21-1.63.36-3.44.46-5.42.1-2,.15-3.8.15-5.39,0-11.39-2.09-22.13-6.19-31.91-4.09-9.8-9.89-18.39-17.21-25.53ZM1671.01,158.93c2.74-9.95,7.9-18.19,15.43-24.53,8.64-7.3,18.94-10.84,31.48-10.84,6.11,0,11.92.95,17.28,2.83,5.37,1.87,10.2,4.58,14.35,8.02,4.17,3.46,7.75,7.67,10.62,12.5,2.17,3.68,3.83,7.71,4.98,12.01h-94.15Z"/>
    <rect class="cls-1" x="1824.27" y="42.21" width="31.81" height="209.09"/>
    <rect class="cls-1" x="1890.88" y="42.21" width="31.81" height="209.09"/>
  </g>
  <path class="cls-1" d="M164.35,0C73.59,0,0,73.58,0,164.35s73.59,164.35,164.35,164.35,164.35-73.58,164.35-164.35S255.12,0,164.35,0ZM51.22,245.61l.28-.64L142.75,40.87h35.84l-.28.64-91.25,204.1h-35.84ZM254.77,245.61h-35.04l-.09-.34-13.67-53.99h-52.93l-.09-.34-8.21-31.96h53.04l-13.76-54.34h35.04l.09.34,13.67,53.99h52.92l.09.34,8.21,31.96h-53.05l13.76,54.34Z"/>
</svg>